<svg width="314" height="314" viewBox="0 0 314 314" fill="none" xmlns="http://www.w3.org/2000/svg">
<rect width="314" height="314" fill="#2071FF"/>
<path d="M28.1288 132.461C4.2648 140.398 9.11922 174.106 28.1288 179C44.7308 183.274 51.7565 182.774 68.7308 179C83.2989 175.761 94.9587 168.4 102.372 158.034C111.979 149.328 116.831 150.93 125.352 155.389C133.873 159.848 153.635 222.408 166.893 237.399C180.151 252.39 212.853 255.918 224.343 237.399C235.722 214.832 237.601 199.48 254.394 188.017C264.528 181.099 268.536 185.371 284.445 182.726C300.354 180.08 310.077 145.689 284.445 132.461C284.445 132.461 255.531 127.333 236.731 136C224.292 141.735 215.422 145.319 208.231 155.389C201.04 165.459 193.503 166.801 185.454 155.389C185.454 155.389 150.984 84.8425 140.378 72.4968C129.771 60.1511 103.003 59.5216 89.9983 72.4968C78.5082 83.9606 78.7308 123.5 28.1288 132.461Z" fill="white"/>
</svg>
